<svg id="Layer_1" data-name="Layer 1" xmlns="http://www.w3.org/2000/svg" width="7.3611in" height="2.1667in" viewBox="0 0 530 156"><defs><style>.cls-1,.cls-4{fill:#8431a6;}.cls-1,.cls-2,.cls-3{fill-rule:evenodd;}.cls-2{fill:#f6b221;}.cls-3,.cls-5{fill:#00acc8;}</style></defs><title>IWPT_Logo_Color</title><path class="cls-1" d="M47.4455,20.0978A42.514,42.514,0,0,1,64.4814,59.1613a50.1316,50.1316,0,0,0,45.5274,80.99A67.6934,67.6934,0,1,1,47.4455,20.0978Z"/><path class="cls-2" d="M141.8614,57.9873A67.6842,67.6842,0,0,0,50.5145,18.6354,49.9461,49.9461,0,0,1,76.9651,48.0108a50.0664,50.0664,0,0,1,64.8963,9.9765ZM93.8025,30.196A9.3585,9.3585,0,1,1,87.672,18.4668,9.3554,9.3554,0,0,1,93.8025,30.196Z"/><path class="cls-3" d="M117.3563,135.5595a42.6569,42.6569,0,1,1,25.11-75.7859,67.719,67.719,0,0,1-25.11,75.7859Z"/><path class="cls-4" d="M181.8374,55.7808c1.1427-5.572,1.6633-9.3214,1.975-11.8547.3117-3.041,3.1189-5.879,7.2767-5.7774h2.2878c3.6383-.1015,6.4444,2.7364,5.7172,5.3713-.8323,2.7364-1.8711,7.4986-3.1189,13.5783-2.0789,11.25-4.4706,24.0188-6.55,35.2667-1.0389,5.27-1.5595,8.8161-1.8711,11.3518-.3117,3.14-3.7422,5.572-8.0051,5.572h-1.8711c-3.7422.1015-6.55-2.5334-5.8211-5.27.6233-1.9242,1.1427-4.0539,1.975-7.4986.1039-.6068.3117-1.2159.4155-1.8251l.3117-1.2159c.1039-.4037.1039-.7083.2078-1.1144Z"/><path class="cls-4" d="M244.4189,79.19c1.4556,3.4471,2.8061,6.3866,3.7422,8.6154v-.203c.7272-4.0539,1.3517-8.0063,1.975-11.9586l.3117-1.8227,3.8473-20.574c.8311-4.3561,1.2466-7.2956,1.4544-9.3214.3128-3.1425,3.64-5.6759,7.7973-5.6759h.5194c3.5356,0,6.3417,2.6349,5.4068,5.27-1.3517,3.8508-3.1189,10.8442-4.4706,16.7208-.2078,1.0129-.4155,1.9266-.6233,2.9395-.7284,3.5463-1.4556,7.4986-2.2878,11.248-.8311,3.8508-1.5595,7.7017-2.2867,11.3495a19.7552,19.7552,0,0,1-.4155,2.4319c-.1039.4061-.2078.9137-.3128,1.3175-1.1427,5.98-1.7672,9.6283-2.1828,13.4791,0,.1015-.1039.203-.1039.3046a5.6662,5.6662,0,0,0-.1039,1.2159c-.3117,2.7364-3.2228,4.9652-7.1728,4.8637-3.7434-.1015-7.2779-1.8227-8.2128-4.1554-.9361-2.6349-2.5995-6.3842-6.55-15.2-1.6633-3.6478-3.3267-7.2956-4.99-11.0449-1.6633-3.7517-3.4306-7.3995-5.0939-11.0473-.3117-.7083-.7284-1.7236-1.04-2.4319a54.73,54.73,0,0,1-4.5745-10.4381c-1.0389,6.1812-1.7672,10.6412-3.3267,20.3686-.4155,2.7364-.935,5.879-1.5595,9.5268-1.6633,9.7275-2.3905,15.4034-2.5983,18.8481-.2078,3.041-3.8461,5.4729-8.109,5.27h-.9361c-3.7422,0-6.5483-2.5334-5.8211-5.0668,1.7672-4.9652,4.6784-17.3276,9.1478-40.8388a121.7856,121.7856,0,0,0,2.3917-19.1527c0-2.9395,2.7022-5.7774,6.965-5.7774h4.4706c4.6784-.1015,8.3167,2.4319,9.2517,5.7774h-.1039c.8323,2.33,1.8711,4.5592,3.7434,8.613Z"/><path class="cls-4" d="M286.2033,74.4282c-5.4056-3.4447-11.4357-7.2956-11.4357-14.6951,0-10.2351,10.1879-23.0035,31.9152-23.0035a51.4226,51.4226,0,0,1,10.084,1.0129c3.9512.8122,5.7184,4.0539,4.99,6.79v-.1015c-.4155,1.8251-2.3905,2.6349-4.7811,2.6349a10.89,10.89,0,0,1-3.9512-.7083,18.9644,18.9644,0,0,0-8.94-2.0281c-11.2279,0-14.7623,8.6154-14.7623,12.9715,0,6.3842,4.4706,8.7169,8.109,10.7427l6.0289,3.4447c6.3417,3.65,12.7873,7.6025,12.7873,14.8981,0,9.4252-9.3568,16.8224-13.6184,19.5588-6.2378,3.6478-14.3468,5.1683-22.0391,5.1683A41.2338,41.2338,0,0,1,271.0254,110c-3.7422-.9137-5.4056-4.3585-4.4706-7.0949.6245-1.8227,2.5995-2.6349,5.1978-2.6349a12.17,12.17,0,0,1,4.7823,1.1144l.2078.203a27.1028,27.1028,0,0,0,8.109,1.3175c9.0451,0,16.53-5.27,16.53-13.9844,0-5.5744-3.2228-7.7017-9.2517-11.0473Zm-9.8762,27.0574a.3873.3873,0,0,0,.3117.1015Z"/><path class="cls-4" d="M330.9,58.1135c1.3517-7.1964,1.9762-11.451,2.2878-14.1874.3117-3.041,2.8061-5.879,7.2767-5.7774h1.6633c2.5995,0,5.9262-.1015,9.0451-.203h.935c2.1828-.1015,5.3017-.203,6.4456-.203,12.059,0,22.1429,3.5486,22.1429,16.114,0,4.8637-2.0789,27.7681-35.1381,27.7681H340.88c-1.1427,6.08-2.1828,12.1593-3.3267,18.34,0,.203-.1039.4061-.1039.6091,0,.1015,0,.203-.2078.6068l.1039-.0992q-.1558,1.367-.3117,2.4319c-.5194,3.14-3.7422,5.7751-8.2128,5.7751h-1.7672c-3.7422,0-6.4456-2.7364-5.7172-5.4729a119.999,119.999,0,0,0,3.5345-14.289c.1039-.4037.2078-.9114.3117-1.3175Zm11.124,15.7079h1.8711a34.7076,34.7076,0,0,0,12.7873-2.13h-.1039c7.1728-3.6478,8.7323-13.2761,8.7323-17.2284,0-9.93-8.2128-9.93-12.6835-9.93h-1.1427c-.5206,0-1.1439.1015-1.8711.1015h-.9361c-.3117,0,.2078.1015-.6233.1015-1.04,4.2569-1.5595,6.9934-1.975,8.9176,0,.203-.1051.3046-.1051.5076-.1039.5053-.2078.9114-.3117,1.419-.2078.81-.4155,1.62-.6233,2.6349Z"/><path class="cls-4" d="M387.658,55.7808c1.1427-5.572,1.6633-9.3214,1.975-11.8547.3117-3.041,3.1189-5.879,7.2767-5.7774h2.2878c3.6383-.1015,6.4444,2.7364,5.7172,5.3713-.8323,2.7364-1.8711,7.4986-3.1189,13.5783-2.0789,11.25-4.4706,24.0188-6.55,35.2667-1.0389,5.27-1.5595,8.8161-1.8711,11.3518-.3117,3.14-3.7422,5.572-8.0051,5.572H383.499c-3.7422.1015-6.55-2.5334-5.8211-5.27.6233-1.9242,1.1427-4.0539,1.975-7.4986.1039-.6068.3117-1.2159.4155-1.8251l.3117-1.2159c.1039-.4037.1039-.7083.2078-1.1144Z"/><path class="cls-4" d="M456.8917,70.9835c-4.2628,4.1554-9.3568,5.9781-13.5145,7.0925.935,9.9329,6.2367,19.2542,13.6184,26.9583,1.4556,1.62-.1039,4.4576-2.9112,4.3561h-1.7672c-.2078,0-.5194-.1015-.8323-.1015-4.4694,0-9.0439-1.2159-11.1228-4.2546a76.0289,76.0289,0,0,1-5.9262-9.8313,57.2354,57.2354,0,0,1-5.1978-15.2h-5.7172c-.5206,3.3432-1.1439,6.991-1.8723,10.8419s-1.3505,7.704-1.975,11.0473v.4061a4.3564,4.3564,0,0,1-.1039.5053,2.7956,2.7956,0,0,1-.1039.8122c-.5194,3.0386-3.8461,5.7751-8.0051,5.7751a2.3116,2.3116,0,0,0-.6233-.1015l-.7272.1015c-3.7434,0-6.9662-2.6349-6.2378-5.27,1.2466-3.5463,2.4944-9.829,3.7422-15.911.7272-3.7493,1.4556-7.4986,2.1828-11.3495,1.5595-8.1078,3.1189-16.2132,4.5745-23.9149a81.3061,81.3061,0,0,0,1.3517-9.0191c.3117-2.9395,3.1189-5.7774,7.2767-5.6759h6.4456c2.5995-.1015,6.3417-.1015,7.6934-.1015.8311,0,1.6633-.1015,2.2867-.1015h1.4556c4.7823,0,11.4357.203,15.9063,2.838a16.018,16.018,0,0,1,7.9,13.68C464.6878,56.7961,464.0645,64.0916,456.8917,70.9835ZM424.9753,72.301h1.04c.7284,0,1.4556.1015,2.1828.1015a27.727,27.727,0,0,0,11.6434-2.0281c6.8623-2.838,8.9412-10.74,8.9412-14.8957,0-8.1078-5.1978-10.54-11.54-10.54-1.7672,0-3.4306.203-6.7573.5053-1.04,4.0539-1.5595,6.3866-3.1189,14.0883Z"/><path class="cls-4" d="M488.801,75.4411c-1.6633,0-3.1189.1015-4.1578.1015L481.1088,94.19a24.681,24.681,0,0,0-.6245,4.7622c0,3.3456,2.08,3.3456,8.3167,3.3456a88.1962,88.1962,0,0,0,13.62-.9137c.1039,0,.4155-.1015.6233-.1015-.4155,0,.5194-.1015.9361-.2007a1.96,1.96,0,0,1,.7272-.203c3.2228-.7107,6.2378.9114,5.6134,3.2417-1.0389,3.2441-4.6784,5.6759-9.2517,5.5744H490.1527c-1.4556,0-3.1189-.1015-4.6784-.1015-4.3655.1015-11.54.1015-15.5934.1015-3.95.1015-6.2378-3.041-5.4056-5.6759a157.4131,157.4131,0,0,0,3.7422-16.7208l2.9112-15.5049c2.8061-14.9973,3.95-23.1051,4.1578-27.565.2078-3.14,3.8473-5.7751,7.7973-5.9781,4.2628.1015,10.1879.1015,14.4507.1015,5.925,0,11.54-.1015,16.1129-.203,2.9112.1015,5.7184,2.2288,5.4068,4.3585-.5206,2.33-3.8473,3.9524-7.4857,3.4447a71.866,71.866,0,0,0-9.2529-.5076c-3.95,0-8.3156.1015-11.1228.203-.2078,0-.4155.1015-.6245.1015-.7272,3.5463-1.3505,7.2979-2.0789,11.0473-.7272,3.8508-1.5595,7.3971-2.2867,11.0449h2.8061c.4167,0,.8323-.1015,1.2478-.1015h1.1439c1.5595,0,3.4306-.1015,4.5745-.203,3.5345-.2007,7.1728,1.3175,6.6534,3.8508-.5206,2.838-5.4068,4.2569-9.0451,4.2569C492.2316,75.5426,490.1527,75.4411,488.801,75.4411Z"/><path class="cls-5" d="M170.5776,120.7a2.54,2.54,0,0,1,1.7507.5808,4.2042,4.2042,0,0,1,1.0625,2.014,41.9858,41.9858,0,0,1,.7355,6.703,47.6049,47.6049,0,0,0,.8405,7.3428q.4675-1.1616,2.3-5.1447t2.5334-5.9427c-.28-1.5158-.6847-2.413-1.2136-2.6845a2.5606,2.5606,0,0,1,2.0317-1.1168A1.3012,1.3012,0,0,1,181.972,123.5a47.8929,47.8929,0,0,1,.654,6.4858,47.3658,47.3658,0,0,0,.8405,7.331q.5135-1.25,2.1592-4.7575t2.616-6.0324a11.9351,11.9351,0,0,0,.968-3.8933,2.0877,2.0877,0,0,0-.28-1.1144,1.8316,1.8316,0,0,1,1.6114-.8193q1.05,0,1.0507,1.1144a11.73,11.73,0,0,1-1.027,3.6879q-1.0288,2.5747-2.2772,5.1565t-2.276,5.3029a12.9314,12.9314,0,0,0-1.0282,4.0633,1.8589,1.8589,0,0,0,.0708.5478,1.5586,1.5586,0,0,1-.6658.3754,2.6824,2.6824,0,0,1-.8287.1464,2.5814,2.5814,0,0,1-1.635-.4321,2.8884,2.8884,0,0,1-.8405-1.49,13.5014,13.5014,0,0,1-.4321-2.4366q-.1275-1.3777-.2444-3.6525-.1169-2.2772-.21-3.3692-1.2608,2.7766-1.8333,4.1082t-1.2254,3.2559a10.0091,10.0091,0,0,0-.654,2.9466,3.9053,3.9053,0,0,0,.046.5478,2.0026,2.0026,0,0,1-1.5288.5218,2.5212,2.5212,0,0,1-1.5878-.4321,3.3157,3.3157,0,0,1-.9114-1.707,45.3161,45.3161,0,0,1-.6882-6.76,46.8249,46.8249,0,0,0-.91-7.7631,5.5557,5.5557,0,0,0-1.9148-2.9135,1.5429,1.5429,0,0,1,.7119-.6044A2.1445,2.1445,0,0,1,170.5776,120.7Z"/><path class="cls-5" d="M195.3508,134.54a11.8723,11.8723,0,0,1-1.2608-.0685,6.6707,6.6707,0,0,0,.9692,3.8461,3.0709,3.0709,0,0,0,2.65,1.32,3.6535,3.6535,0,0,0,3.5026-2.2973,1.678,1.678,0,0,1,.56,1.275,2.1968,2.1968,0,0,1-1.4591,1.99,6.8078,6.8078,0,0,1-3.0469.7178,5.1863,5.1863,0,0,1-4.2617-1.7519,6.92,6.92,0,0,1-1.4355-4.5308,11.0523,11.0523,0,0,1,.5371-3.3574,12.5311,12.5311,0,0,1,1.4709-3.1189,7.44,7.44,0,0,1,2.4047-2.3115,6.1373,6.1373,0,0,1,3.2228-.8877,3.7574,3.7574,0,0,1,2.6727.8665A2.9179,2.9179,0,0,1,202.8,128.46a5.636,5.636,0,0,1-2.09,4.1436A7.5742,7.5742,0,0,1,195.3508,134.54Zm4.4021-6.8635a2.1984,2.1984,0,0,0-1.635-.6044,2.9205,2.9205,0,0,0-1.7979.569,3.9357,3.9357,0,0,0-1.2029,1.5252,12.0066,12.0066,0,0,0-.98,3.8485,8.8436,8.8436,0,0,0,1.0507.0685,5.5942,5.5942,0,0,0,3.7706-1.1947,3.4921,3.4921,0,0,0,1.3895-2.675A2.0949,2.0949,0,0,0,199.7529,127.6766Z"/><path class="cls-5" d="M210.2241,121.9511q0,1.2537-.8984,7.0807a63.01,63.01,0,0,0-.9,8.0676,4.5489,4.5489,0,0,0,.8877,3.1756,2.12,2.12,0,0,1-1.6114.8193q-1.82,0-1.8215-3.0032,0-1.1156.83-6.6463a61.491,61.491,0,0,0,.8287-7.9567,8.1279,8.1279,0,0,0-.4911-3.381,2.2121,2.2121,0,0,1,.7355-.3518,2.8608,2.8608,0,0,1,.83-.1487,1.4016,1.4016,0,0,1,1.2136.5454A3.14,3.14,0,0,1,210.2241,121.9511Z"/><path class="cls-5" d="M217.9765,121.9511q0,1.2537-.8984,7.0807a63.01,63.01,0,0,0-.9,8.0676,4.5489,4.5489,0,0,0,.8877,3.1756,2.12,2.12,0,0,1-1.6114.8193q-1.82,0-1.8215-3.0032,0-1.1156.83-6.6463a61.491,61.491,0,0,0,.8287-7.9567,8.1279,8.1279,0,0,0-.4911-3.381,2.2121,2.2121,0,0,1,.7355-.3518,2.8609,2.8609,0,0,1,.83-.1487,1.4016,1.4016,0,0,1,1.2136.5454A3.14,3.14,0,0,1,217.9765,121.9511Z"/><path class="cls-5" d="M229.8372,125.4572q2.7323,0,2.7329,3.9382a28.3559,28.3559,0,0,1-.2692,3.2771,28.2426,28.2426,0,0,0-.268,3.2559q0,3.2086,1.027,4.3467a2.347,2.347,0,0,1-1.635.8193q-1.9372,0-1.9372-4.4151a28.09,28.09,0,0,1,.3848-4.1318,28.2733,28.2733,0,0,0,.3848-3.1874,1.8649,1.8649,0,0,0-.28-1.0908,1.1134,1.1134,0,0,0-.981-.399q-.9332,0-2.2406,2.0824a22.69,22.69,0,0,0-2.2076,4.689,13.5405,13.5405,0,0,0-.8984,4.0869,3.801,3.801,0,0,0,.3967,2.0494,4.3476,4.3476,0,0,1-1.5642.3164,1.109,1.109,0,0,1-1.0625-.5785,3.5477,3.5477,0,0,1-.3152-1.6622,41.8305,41.8305,0,0,1,.4439-4.3939,42.2918,42.2918,0,0,0,.4439-5.35,6.7255,6.7255,0,0,0-.4911-2.97,1.77,1.77,0,0,1,.7012-.3754,2.7967,2.7967,0,0,1,.8405-.1487,1.3972,1.3972,0,0,1,1.2136.5478,3.751,3.751,0,0,1,.3967,2.0588,33.6467,33.6467,0,0,1-.6764,5.2014q2.4986-5.8258,4.25-7.2838A2.5269,2.5269,0,0,1,229.8372,125.4572Z"/><path class="cls-5" d="M240.0415,134.54a11.8723,11.8723,0,0,1-1.2608-.0685,6.6707,6.6707,0,0,0,.9692,3.8461,3.0709,3.0709,0,0,0,2.65,1.32,3.6535,3.6535,0,0,0,3.5026-2.2973,1.678,1.678,0,0,1,.56,1.275,2.1968,2.1968,0,0,1-1.4591,1.99,6.8078,6.8078,0,0,1-3.0469.7178,5.1863,5.1863,0,0,1-4.2617-1.7519,6.92,6.92,0,0,1-1.4355-4.5308,11.0523,11.0523,0,0,1,.5371-3.3574,12.5311,12.5311,0,0,1,1.4709-3.1189,7.44,7.44,0,0,1,2.4047-2.3115,6.1373,6.1373,0,0,1,3.2228-.8877,3.7574,3.7574,0,0,1,2.6727.8665,2.9179,2.9179,0,0,1,.9232,2.2288,5.636,5.636,0,0,1-2.09,4.1436A7.5742,7.5742,0,0,1,240.0415,134.54Zm4.4021-6.8635a2.1984,2.1984,0,0,0-1.635-.6044,2.9205,2.9205,0,0,0-1.7979.569,3.9357,3.9357,0,0,0-1.2029,1.5252,12.0066,12.0066,0,0,0-.98,3.8485,8.8436,8.8436,0,0,0,1.0507.0685,5.5942,5.5942,0,0,0,3.7706-1.1947,3.4921,3.4921,0,0,0,1.3895-2.675A2.0949,2.0949,0,0,0,244.4437,127.6766Z"/><path class="cls-5" d="M254.8924,126.9588a2.3617,2.3617,0,0,0-1.5654.4887,1.6533,1.6533,0,0,0-.5832,1.3316,2.1481,2.1481,0,0,0,.5714,1.48,17.1006,17.1006,0,0,0,1.95,1.7306q1.3777,1.0908,1.7047,1.3647a4.4164,4.4164,0,0,1,1.8676,3.5061,4.0164,4.0164,0,0,1-1.3541,3.1874,5.6781,5.6781,0,0,1-3.8532,1.1829,6.3462,6.3462,0,0,1-3.1166-.6941,2.189,2.189,0,0,1-1.249-2.014,3.0182,3.0182,0,0,1,1.12-2.0258,4.2269,4.2269,0,0,0,1.4367,2.446,3.4776,3.4776,0,0,0,2.171.81,3.0371,3.0371,0,0,0,1.8676-.5478,1.6987,1.6987,0,0,0,.7355-1.4331,2.1932,2.1932,0,0,0-.2916-1.2183c-.1948-.2951-.3459-.5147-.4557-.6611a4.63,4.63,0,0,0-.63-.6139c-.3117-.2644-.5478-.4628-.7119-.5926q-.2444-.1912-.9456-.7272-.6995-.5348-1.0507-.8075a4.3608,4.3608,0,0,1-1.9384-3.551,3.6953,3.6953,0,0,1,1.4485-3.1543,6.5015,6.5015,0,0,1,3.9689-1.0814q3.152,0,3.152,2.1178a2.3026,2.3026,0,0,1-1.0743,1.82A3.3055,3.3055,0,0,0,254.8924,126.9588Z"/><path class="cls-5" d="M266.9408,126.9588a2.3617,2.3617,0,0,0-1.5654.4887,1.6533,1.6533,0,0,0-.5832,1.3316,2.1481,2.1481,0,0,0,.5714,1.48,17.1006,17.1006,0,0,0,1.95,1.7306q1.3777,1.0908,1.7047,1.3647a4.4164,4.4164,0,0,1,1.8676,3.5061,4.0164,4.0164,0,0,1-1.3541,3.1874,5.6781,5.6781,0,0,1-3.8532,1.1829,6.3462,6.3462,0,0,1-3.1166-.6941,2.189,2.189,0,0,1-1.249-2.014,3.0182,3.0182,0,0,1,1.12-2.0258,4.2269,4.2269,0,0,0,1.4367,2.446,3.4776,3.4776,0,0,0,2.171.81,3.0371,3.0371,0,0,0,1.8676-.5478,1.6987,1.6987,0,0,0,.7355-1.4331,2.1932,2.1932,0,0,0-.2916-1.2183c-.1948-.2951-.3459-.5147-.4557-.6611a4.63,4.63,0,0,0-.63-.6139c-.3117-.2644-.5478-.4628-.7119-.5926q-.2444-.1912-.9456-.7272-.6995-.5348-1.0507-.8075a4.3608,4.3608,0,0,1-1.9384-3.551,3.6953,3.6953,0,0,1,1.4485-3.1543,6.5015,6.5015,0,0,1,3.9689-1.0814q3.152,0,3.152,2.1178a2.3026,2.3026,0,0,1-1.0743,1.82A3.3055,3.3055,0,0,0,266.9408,126.9588Z"/><path class="cls-5" d="M286.3083,132.5025a4.7209,4.7209,0,0,0-1.4367,3.2559,4.09,4.09,0,0,0,.981,2.8214,3.5061,3.5061,0,0,0,2.7671,1.105,4.5105,4.5105,0,0,0,4.4718-4.5544,5.576,5.576,0,0,0-.1641-1.3411,14.2872,14.2872,0,0,0-4.2262,1.7283,2.8131,2.8131,0,0,0-.7473.8665,4.4639,4.4639,0,0,1-.21-1.4355,1.8032,1.8032,0,0,1,.8181-1.445,6.5052,6.5052,0,0,1,2.09-1.0129q1.2714-.386,2.6266-.7508,3.4087-.935,4.3431-2.3233a4.8209,4.8209,0,0,1,.21,1.2537q0,1.5229-2.8486,2.4814a9.3847,9.3847,0,0,1,.1865,1.7283,5.8056,5.8056,0,0,1-2.1367,4.7362,7.5894,7.5894,0,0,1-4.9617,1.7519,6.8376,6.8376,0,0,1-2.7081-.5005,4.4714,4.4714,0,0,1-1.7979-1.2962,5.61,5.61,0,0,1-1.2844-3.5746,5.5009,5.5009,0,0,1,1.3659-3.5982,8.3682,8.3682,0,0,1,3.7706-2.4791q-3.9453-1.2537-3.9453-4.6678a4.0738,4.0738,0,0,1,1.517-3.1992,6.2537,6.2537,0,0,1,4.2144-1.308,6.7632,6.7632,0,0,1,3.8768.8547,2.3442,2.3442,0,0,1,1.1793,1.8322,1.3477,1.3477,0,0,1-.386,1.0129,4.0347,4.0347,0,0,1-1.3659.739q-.6764-3.0741-3.2688-3.0717a3.1386,3.1386,0,0,0-2.4165.9657,3.0681,3.0681,0,0,0-.9,2.13q0,3.4141,3.9465,3.8461a1.8644,1.8644,0,0,1,.7237.1606.5146.5146,0,0,1,.1877.4769,2.2829,2.2829,0,0,1-.1641.798A7.354,7.354,0,0,0,286.3083,132.5025Z"/><path class="cls-5" d="M320.6424,125.3651a5.8249,5.8249,0,0,1-.654,2.72,7.3934,7.3934,0,0,1-1.6338,2.1415,12.3484,12.3484,0,0,1-2.3114,1.6031,20.8023,20.8023,0,0,1-4.88,1.844,28.7677,28.7677,0,0,0-.2574,3.4849,4.4469,4.4469,0,0,0,.8877,3.1166,2.12,2.12,0,0,1-1.6114.8193q-1.82,0-1.8215-3.0032a68.0526,68.0526,0,0,1,.8877-6.8989,63.0949,63.0949,0,0,0,.8877-7.2484,8.6968,8.6968,0,0,0-.3506-2.675,29.9615,29.9615,0,0,1,5.09-.569Q320.643,120.7,320.6424,125.3651Zm-2.4519.4793q0-3.7576-3.8284-3.7564a9.7862,9.7862,0,0,0-1.5878.1369,37.5031,37.5031,0,0,1-.62,5.1329q-.618,3.7222-.7815,4.7693a11.7572,11.7572,0,0,0,4.67-1.9809,5.3758,5.3758,0,0,0,1.576-1.8558A5.2381,5.2381,0,0,0,318.1905,125.8444Z"/><path class="cls-5" d="M324.3788,140.778a4.1972,4.1972,0,0,1-1.5524.3164,1.1191,1.1191,0,0,1-1.0743-.5785,4.0888,4.0888,0,0,1-.3152-1.8558,60.4294,60.4294,0,0,1,.9574-6.83q1.61-9.4913.4663-11.7225a2.1138,2.1138,0,0,1,1.4591-.5005,1.4943,1.4943,0,0,1,1.2962.5454,3.5939,3.5939,0,0,1,.3967,1.9927,41.9107,41.9107,0,0,1-.7815,5.8152q-.7827,4.37-.922,5.4634,2.4738-5.78,4.2487-7.2838a2.554,2.554,0,0,1,1.635-.6823q2.7075,0,2.7081,3.9382a28.5688,28.5688,0,0,1-.268,3.2771,28.3018,28.3018,0,0,0-.2692,3.2559q0,3.2086,1.0282,4.3467a2.3492,2.3492,0,0,1-1.635.8193q-1.939,0-1.9384-4.4151a27.9522,27.9522,0,0,1,.386-4.1318,28.5731,28.5731,0,0,0,.3848-3.1874,1.8649,1.8649,0,0,0-.28-1.0908,1.1134,1.1134,0,0,0-.981-.399q-.935,0-2.2418,2.0824a22.7486,22.7486,0,0,0-2.2064,4.689,13.504,13.504,0,0,0-.8984,4.0869A3.79,3.79,0,0,0,324.3788,140.778Z"/><path class="cls-5" d="M344.8336,127.6884a2.11,2.11,0,0,0-.2574-1.0932,1.83,1.83,0,0,1,1.6586-.8429q1.0731,0,1.0743,1.1616a22.5526,22.5526,0,0,1-.9574,4.6205,52.8772,52.8772,0,0,1-1.95,5.9073,42.0586,42.0586,0,0,1-2.1485,4.5072,12.2194,12.2194,0,0,1-2.7317,3.4259,4.9648,4.9648,0,0,1-3.2334,1.3434q-3.2228,0-3.2228-2.1178a2.6967,2.6967,0,0,1,.7473-1.82,2.6527,2.6527,0,0,0,2.7789,2.0258q2.5676,0,4.74-4.37a1.579,1.579,0,0,1-1.0034-.25,1.4457,1.4457,0,0,1-.4439-.7508,76.6576,76.6576,0,0,0-2.8143-9.744q-1.0377-2.4578-2.0187-2.5027a2.0759,2.0759,0,0,1,.8169-1.14,2.0241,2.0241,0,0,1,1.0967-.3636q1.4255,0,2.3823,2.3445.63,1.5937,2.7317,10.7687a41.73,41.73,0,0,0,1.9963-6.1694A22.6831,22.6831,0,0,0,344.8336,127.6884Z"/><path class="cls-5" d="M354.757,126.9588a2.3617,2.3617,0,0,0-1.5654.4887,1.6533,1.6533,0,0,0-.5832,1.3316,2.1481,2.1481,0,0,0,.5714,1.48,17.1006,17.1006,0,0,0,1.95,1.7306q1.3777,1.0908,1.7047,1.3647a4.4164,4.4164,0,0,1,1.8676,3.5061,4.0164,4.0164,0,0,1-1.3541,3.1874,5.6781,5.6781,0,0,1-3.8532,1.1829,6.3462,6.3462,0,0,1-3.1166-.6941,2.189,2.189,0,0,1-1.249-2.014,3.0182,3.0182,0,0,1,1.12-2.0258,4.2269,4.2269,0,0,0,1.4367,2.446,3.4776,3.4776,0,0,0,2.171.81,3.0371,3.0371,0,0,0,1.8676-.5478,1.6987,1.6987,0,0,0,.7355-1.4331,2.1932,2.1932,0,0,0-.2916-1.2183c-.1948-.2951-.3459-.5147-.4557-.6611a4.63,4.63,0,0,0-.63-.6139c-.3117-.2644-.5478-.4628-.7119-.5926q-.2444-.1912-.9456-.7272-.6995-.5348-1.0507-.8075a4.3608,4.3608,0,0,1-1.9384-3.551,3.6953,3.6953,0,0,1,1.4485-3.1543,6.5015,6.5015,0,0,1,3.9689-1.0814q3.152,0,3.152,2.1178a2.3026,2.3026,0,0,1-1.0743,1.82A3.3055,3.3055,0,0,0,354.757,126.9588Z"/><path class="cls-5" d="M364.3062,141.0943q-1.82,0-1.8215-3.0032a30.1977,30.1977,0,0,1,.4911-4.2333,31.3505,31.3505,0,0,0,.49-4.8944,6.2038,6.2038,0,0,0-.49-2.8238,2.0541,2.0541,0,0,1,1.4237-.5241,1.5188,1.5188,0,0,1,1.7047,1.7306q0,.5454-.5371,4.2687a43.2518,43.2518,0,0,0-.5371,5.7255,4.1421,4.1421,0,0,0,.8877,2.9348A2.12,2.12,0,0,1,364.3062,141.0943Zm2.2182-19.3014a4.8047,4.8047,0,0,1-.2562,1.3883,3.095,3.095,0,0,1-1.5772.5218,1.55,1.55,0,0,1-1.0034-.25.8754.8754,0,0,1-.2916-.7059,9.3621,9.3621,0,0,1,.1629-1.41,3.1439,3.1439,0,0,1,1.6114-.5241Q366.525,120.8131,366.5244,121.7929Z"/><path class="cls-5" d="M375.233,141.3234a5.1863,5.1863,0,0,1-4.2617-1.7519,6.92,6.92,0,0,1-1.4355-4.5308,11.0523,11.0523,0,0,1,.5371-3.3574,12.5311,12.5311,0,0,1,1.4709-3.1189,7.44,7.44,0,0,1,2.4047-2.3115,6.0546,6.0546,0,0,1,3.1756-.8877q3.2458,0,3.2464,1.844a2.5819,2.5819,0,0,1-1.0518,2.0942A4.89,4.89,0,0,0,378,127.653a3.2138,3.2138,0,0,0-3.6549-.0212,3.8541,3.8541,0,0,0-1.1557,1.3647,8.8407,8.8407,0,0,0-.6646,1.8322,13.4175,13.4175,0,0,0-.4675,3.4141,7.1655,7.1655,0,0,0,.9338,4.0185,3.0482,3.0482,0,0,0,2.6857,1.3765,3.3839,3.3839,0,0,0,3.2216-2.2973,1.7439,1.7439,0,0,1,.4911,1.275,2.1926,2.1926,0,0,1-1.3434,1.99A5.8753,5.8753,0,0,1,375.233,141.3234Z"/><path class="cls-5" d="M385.3914,141.2549a2.8182,2.8182,0,0,1-2.511-1.5252,8.0849,8.0849,0,0,1-.922-4.1885,12.7021,12.7021,0,0,1,1.9726-7.2271,5.7527,5.7527,0,0,1,4.8684-2.9489,4.1578,4.1578,0,0,1,3.2925,1.5252,2.2675,2.2675,0,0,1,.4793-1.0011,1.2335,1.2335,0,0,1,.91-.2951,1.5563,1.5563,0,0,1,1.1557.59,16.8212,16.8212,0,0,0-.7237,3.6667,40.8566,40.8566,0,0,0-.3034,4.7905,18.5214,18.5214,0,0,0,.2444,3.4377,6.6621,6.6621,0,0,0,.83,2.1745,1.9928,1.9928,0,0,1-1.5878.8405q-2.01,0-2.0081-4.8023,0-.7721.1865-2.7081a20.8584,20.8584,0,0,1-2.884,5.4847Q386.7212,141.2537,385.3914,141.2549Zm3.5014-14.32a3.6861,3.6861,0,0,0-3.2334,2.2548,11.8416,11.8416,0,0,0-1.249,5.7822,6.8763,6.8763,0,0,0,.4781,2.8332q.4781,1.0377,1.308,1.0365t2.1013-1.7755a21.3092,21.3092,0,0,0,2.3233-4.3372,17.6322,17.6322,0,0,0,1.2844-4.6087A5.1247,5.1247,0,0,0,388.8928,126.9352Z"/><path class="cls-5" d="M403.0424,121.9511q0,1.2537-.8984,7.0807a63.01,63.01,0,0,0-.9,8.0676,4.5489,4.5489,0,0,0,.8877,3.1756,2.12,2.12,0,0,1-1.6114.8193q-1.82,0-1.8215-3.0032,0-1.1156.83-6.6463a61.491,61.491,0,0,0,.8287-7.9567,8.1279,8.1279,0,0,0-.4911-3.381,2.2121,2.2121,0,0,1,.7355-.3518,2.8608,2.8608,0,0,1,.83-.1487,1.4016,1.4016,0,0,1,1.2136.5454A3.14,3.14,0,0,1,403.0424,121.9511Z"/><path class="cls-5" d="M424.5479,123.2709l-3.6195-.2715q-.0478,1.4556-.9456,6.7266a51.5346,51.5346,0,0,0-.9,7.4207,4.4941,4.4941,0,0,0,.9114,3.1284,2.1394,2.1394,0,0,1-1.635.8193q-1.7973,0-1.7979-3.0032a62.76,62.76,0,0,1,.8523-6.6132,56.4974,56.4974,0,0,0,.8523-7.4089c0-.47-.0083-.8358-.0236-1.0932a16.9781,16.9781,0,0,0-5.2993.7272,3.0935,3.0935,0,0,1,.641-2.014,2.2731,2.2731,0,0,1,1.6468-.5336l8.6862.09a6.407,6.407,0,0,0,2.8946-.4321,2.9807,2.9807,0,0,1-.6186,1.9691A2.3537,2.3537,0,0,1,424.5479,123.2709Z"/><path class="cls-5" d="M429.3573,140.778a4.1972,4.1972,0,0,1-1.5524.3164,1.1191,1.1191,0,0,1-1.0743-.5785,4.0888,4.0888,0,0,1-.3152-1.8558,60.4294,60.4294,0,0,1,.9574-6.83q1.61-9.4913.4663-11.7225a2.1138,2.1138,0,0,1,1.4591-.5005,1.4943,1.4943,0,0,1,1.2962.5454,3.5939,3.5939,0,0,1,.3967,1.9927,41.9107,41.9107,0,0,1-.7815,5.8152q-.7827,4.37-.922,5.4634,2.4738-5.78,4.2487-7.2838a2.554,2.554,0,0,1,1.635-.6823q2.7075,0,2.7081,3.9382a28.5688,28.5688,0,0,1-.268,3.2771,28.3018,28.3018,0,0,0-.2692,3.2559q0,3.2086,1.0282,4.3467a2.3492,2.3492,0,0,1-1.635.8193q-1.939,0-1.9384-4.4151a27.9522,27.9522,0,0,1,.386-4.1318,28.5731,28.5731,0,0,0,.3848-3.1874,1.8649,1.8649,0,0,0-.28-1.0908,1.1134,1.1134,0,0,0-.981-.399q-.935,0-2.2418,2.0824a22.7487,22.7487,0,0,0-2.2064,4.689,13.504,13.504,0,0,0-.8984,4.0869A3.79,3.79,0,0,0,429.3573,140.778Z"/><path class="cls-5" d="M445.351,134.54a11.8723,11.8723,0,0,1-1.2608-.0685,6.6707,6.6707,0,0,0,.9692,3.8461,3.0709,3.0709,0,0,0,2.65,1.32,3.6535,3.6535,0,0,0,3.5026-2.2973,1.678,1.678,0,0,1,.56,1.275,2.1968,2.1968,0,0,1-1.4591,1.99,6.8078,6.8078,0,0,1-3.0469.7178,5.1863,5.1863,0,0,1-4.2617-1.7519,6.92,6.92,0,0,1-1.4355-4.5308,11.0523,11.0523,0,0,1,.5371-3.3574,12.5311,12.5311,0,0,1,1.4709-3.1189,7.44,7.44,0,0,1,2.4047-2.3115,6.1373,6.1373,0,0,1,3.2228-.8877,3.7574,3.7574,0,0,1,2.6727.8665A2.9179,2.9179,0,0,1,452.8,128.46a5.636,5.636,0,0,1-2.09,4.1436A7.5742,7.5742,0,0,1,445.351,134.54Zm4.4021-6.8635a2.1984,2.1984,0,0,0-1.635-.6044,2.9205,2.9205,0,0,0-1.7979.569,3.9357,3.9357,0,0,0-1.2029,1.5252,12.0066,12.0066,0,0,0-.98,3.8485,8.8436,8.8436,0,0,0,1.0507.0685,5.5942,5.5942,0,0,0,3.7706-1.1947,3.4921,3.4921,0,0,0,1.3895-2.675A2.0949,2.0949,0,0,0,449.7531,127.6766Z"/><path class="cls-5" d="M457.7027,141.0943q-1.82,0-1.8215-3.0032a30.1977,30.1977,0,0,1,.4911-4.2333,31.3505,31.3505,0,0,0,.49-4.8944,6.2038,6.2038,0,0,0-.49-2.8238,2.0541,2.0541,0,0,1,1.4237-.5241,1.5188,1.5188,0,0,1,1.7047,1.7306,21.3114,21.3114,0,0,1-.2916,2.5263q-.2922,1.9124-.3848,2.6184a19.4343,19.4343,0,0,1,2.8368-5.1777q1.576-1.9479,2.603-1.9479a.9375.9375,0,0,1,.8759.5478,2.3313,2.3313,0,0,1,.2916,1.1144,5.0371,5.0371,0,0,1-.14,1.1616,3.2848,3.2848,0,0,0-.6528-.0685,4.16,4.16,0,0,0-3.0009,1.707,13.429,13.429,0,0,0-2.3587,3.7564,9.2734,9.2734,0,0,0-.8523,3.39,4.7748,4.7748,0,0,0,.8877,3.3007A2.12,2.12,0,0,1,457.7027,141.0943Z"/><path class="cls-5" d="M469.8679,141.2549a2.8182,2.8182,0,0,1-2.511-1.5252,8.0849,8.0849,0,0,1-.922-4.1885,12.7021,12.7021,0,0,1,1.9726-7.2271,5.7527,5.7527,0,0,1,4.8684-2.9489,4.1578,4.1578,0,0,1,3.2925,1.5252,2.2675,2.2675,0,0,1,.4793-1.0011,1.2335,1.2335,0,0,1,.91-.2951,1.5563,1.5563,0,0,1,1.1557.59,16.8212,16.8212,0,0,0-.7237,3.6667,40.8566,40.8566,0,0,0-.3034,4.7905,18.5214,18.5214,0,0,0,.2444,3.4377,6.6621,6.6621,0,0,0,.83,2.1745,1.9928,1.9928,0,0,1-1.5878.8405q-2.01,0-2.0081-4.8023,0-.7721.1865-2.7081a20.8584,20.8584,0,0,1-2.884,5.4847Q471.1978,141.2537,469.8679,141.2549Zm3.5014-14.32a3.6861,3.6861,0,0,0-3.2334,2.2548,11.8416,11.8416,0,0,0-1.249,5.7822,6.8763,6.8763,0,0,0,.4781,2.8332q.4781,1.0377,1.308,1.0365t2.1013-1.7755a21.3092,21.3092,0,0,0,2.3233-4.3372,17.6322,17.6322,0,0,0,1.2844-4.6087A5.1247,5.1247,0,0,0,473.3693,126.9352Z"/><path class="cls-5" d="M483.8074,129.19a6.9717,6.9717,0,0,0-.49-3.05,1.7642,1.7642,0,0,1,.7-.3754,2.8028,2.8028,0,0,1,.8405-.1487,1.398,1.398,0,0,1,1.2148.5478,3.8954,3.8954,0,0,1,.3967,2.1155,31.5965,31.5965,0,0,1-.6764,5.1447,29.02,29.02,0,0,1,3.0469-5.9522q1.5052-2.1037,2.7671-2.106a3.1885,3.1885,0,0,1,2.6845,1.6291,8.792,8.792,0,0,1,1.0979,4.8826,13.0662,13.0662,0,0,1-1.5181,6.3276,5.995,5.995,0,0,1-1.9726,2.2076,4.9181,4.9181,0,0,1-2.8143.8429,7.1811,7.1811,0,0,1-2.1131-.3518,5.4686,5.4686,0,0,1-1.8086-.9q-.1186,1.2962-.1169,2.3209,0,2.8687,1.0967,3.9618a2.0587,2.0587,0,0,1-1.5878.8193q-1.985,0-1.9844-3.4825,0-.9562.6186-5.9073A70.289,70.289,0,0,0,483.8074,129.19Zm7.1693-1.4119q-.5613,0-1.3777.9a13.2906,13.2906,0,0,0-1.6468,2.3563,21.0494,21.0494,0,0,0-1.5524,3.5628,25.7427,25.7427,0,0,0-1.0743,4.2687,6.9853,6.9853,0,0,0,3.479.8405,3.3613,3.3613,0,0,0,3.0705-2.014,10.701,10.701,0,0,0,1.0861-5.1093,10.082,10.082,0,0,0-.5017-3.4377Q491.9565,127.7781,490.9767,127.7781Z"/><path class="cls-5" d="M506.4568,127.6884a2.11,2.11,0,0,0-.2574-1.0932,1.83,1.83,0,0,1,1.6586-.8429q1.0731,0,1.0743,1.1616a22.5526,22.5526,0,0,1-.9574,4.6205,52.8772,52.8772,0,0,1-1.95,5.9073,42.0586,42.0586,0,0,1-2.1485,4.5072,12.2194,12.2194,0,0,1-2.7317,3.4259,4.9648,4.9648,0,0,1-3.2334,1.3434q-3.2228,0-3.2228-2.1178a2.6967,2.6967,0,0,1,.7473-1.82,2.6527,2.6527,0,0,0,2.7789,2.0258q2.5676,0,4.74-4.37a1.579,1.579,0,0,1-1.0034-.25,1.4457,1.4457,0,0,1-.4439-.7508,76.6576,76.6576,0,0,0-2.8143-9.744q-1.0377-2.4578-2.0187-2.5027a2.0759,2.0759,0,0,1,.8169-1.14,2.0241,2.0241,0,0,1,1.0967-.3636q1.4255,0,2.3823,2.3445.63,1.5937,2.7317,10.7687a41.73,41.73,0,0,0,1.9963-6.1694A22.6824,22.6824,0,0,0,506.4568,127.6884Z"/></svg>